<svg xmlns="http://www.w3.org/2000/svg" viewBox="0 0 400 230" width="400" height="230">
  <defs>
    <linearGradient id="bg5" x1="0" y1="0" x2="0" y2="1"><stop offset="0" stop-color="#fffbeb"/><stop offset="1" stop-color="#fef3c7"/></linearGradient>
    <linearGradient id="box1" x1="0" y1="0" x2="0" y2="1"><stop offset="0" stop-color="#f59e0b"/><stop offset="1" stop-color="#d97706"/></linearGradient>
  </defs>
  <rect width="400" height="230" fill="url(#bg5)"/>
  <circle cx="330" cy="56" r="30" fill="#fde68a" opacity="0.8"/>
  <rect x="60" y="188" width="280" height="12" rx="4" fill="#e7e5e4"/>
  <!-- big open box -->
  <path d="M120 96 l80 -24 80 24 -80 22 z" fill="#fbbf24"/>
  <path d="M120 96 v70 l80 22 v-70 z" fill="url(#box1)"/>
  <path d="M280 96 v70 l-80 22 v-70 z" fill="#b45309"/>
  <path d="M120 96 l80 22 v-16 l-80 -22 z" fill="#fcd34d"/><path d="M280 96 l-80 22 v-16 l80 -22 z" fill="#f59e0b"/>
  <!-- items peeking -->
  <rect x="176" y="86" width="24" height="18" rx="2" fill="#60a5fa"/><rect x="200" y="90" width="20" height="14" rx="2" fill="#f472b6"/>
  <!-- small stacked box -->
  <path d="M56 150 l40 -12 40 12 -40 11 z" fill="#fcd34d"/><path d="M56 150 v34 l40 11 v-34 z" fill="#f59e0b"/><path d="M136 150 v34 l-40 11 v-34 z" fill="#d97706"/>
  <!-- shipping label -->
  <rect x="300" y="120" width="60" height="46" rx="4" fill="#ffffff" stroke="#cbd5e1" transform="rotate(6 330 143)"/>
  <g transform="rotate(6 330 143)"><rect x="308" y="128" width="30" height="5" rx="2" fill="#94a3b8"/><rect x="308" y="138" width="44" height="4" rx="2" fill="#cbd5e1"/><g fill="#334155"><rect x="308" y="148" width="3" height="12"/><rect x="314" y="148" width="2" height="12"/><rect x="319" y="148" width="4" height="12"/><rect x="326" y="148" width="2" height="12"/><rect x="331" y="148" width="3" height="12"/><rect x="338" y="148" width="2" height="12"/><rect x="343" y="148" width="4" height="12"/></g></g>
</svg>
